<svg width="200" height="200" viewBox="0 0 200 200" fill="none" xmlns="http://www.w3.org/2000/svg">
  <path d="M60 150 L30 150 Q20 150 20 140 L50 60 Q55 45 70 45 L80 45 L60 150Z" fill="#2B458C"/>
  <path d="M85 45 L125 150 Q130 160 115 160 L100 160 L70 45 L85 45Z" fill="#E2231A"/>
  <g>
    <path d="M100 45 L160 45 Q170 45 170 55 L170 65 Q170 75 160 75 L110 75 L100 45Z" fill="#2B458C"/>
    <path d="M115 85 L155 85 Q165 85 165 95 L165 105 Q165 115 155 115 L125 115 L115 85Z" fill="#2B458C"/>
    <path d="M130 125 L160 125 Q170 125 170 135 L170 145 Q170 155 160 155 L140 155 L130 125Z" fill="#2B458C"/>
  </g>
</svg>